/* XPM */
static char *logoalchimie[] = {
/* columns rows colors chars-per-pixel */
"54 12 2 1 ",
"  c black",
". c gray100",
/* pixels */
"   .    ...     ...   ..  .  ..... .    . ..... ......",
"  ...   ...     . .   ..  .  ..... .    . .....  .. ..",
"  ...    .     .. ..  ..  .    .   .   ..   .    .. ..",
"  ...    .     .      ..  .    .   ..  ..   .    ..   ",
"  ...    .    ..      ..  .    .   .. ...   .    ..   ",
" .. ..   .    ..      .....    .   ......   .    ...  ",
" .. ..   .    ..      .....    .   ......   .    ...  ",
" .....   .    ..      ..  .    .   . . ..   .    ..   ",
" .....   .     .      ..  .    .   .   ..   .    ..   ",
"..   ..  .  .  .. ..  ..  .    .   .   ..   .    .. ..",
"..   .. .....   ....  ..  .  ..... .   .. ..... ......",
"..   .. .....   ...   ..  .  ..... .   .. ..... ......"
};
