<?xml version="1.0" encoding="UTF-8" standalone="no"?>
<!-- Created with Inkscape (http://www.inkscape.org/) -->

<svg
   xmlns:dc="http://purl.org/dc/elements/1.1/"
   xmlns:cc="http://creativecommons.org/ns#"
   xmlns:rdf="http://www.w3.org/1999/02/22-rdf-syntax-ns#"
   xmlns:svg="http://www.w3.org/2000/svg"
   xmlns="http://www.w3.org/2000/svg"
   xmlns:sodipodi="http://sodipodi.sourceforge.net/DTD/sodipodi-0.dtd"
   xmlns:inkscape="http://www.inkscape.org/namespaces/inkscape"
   width="210mm"
   height="297mm"
   id="svg3045"
   version="1.1"
   inkscape:version="0.48.1 r9760"
   sodipodi:docname="demo_inside_alchimie.svg">
  <defs
     id="defs3047" />
  <sodipodi:namedview
     id="base"
     pagecolor="#ffffff"
     bordercolor="#666666"
     borderopacity="1.0"
     inkscape:pageopacity="0.0"
     inkscape:pageshadow="2"
     inkscape:zoom="0.58"
     inkscape:cx="352.28234"
     inkscape:cy="427.38916"
     inkscape:document-units="px"
     inkscape:current-layer="g3"
     showgrid="false"
     inkscape:window-width="820"
     inkscape:window-height="827"
     inkscape:window-x="950"
     inkscape:window-y="167"
     inkscape:window-maximized="0" />
  <metadata
     id="metadata3050">
    <rdf:RDF>
      <cc:Work
         rdf:about="">
        <dc:format>image/svg+xml</dc:format>
        <dc:type
           rdf:resource="http://purl.org/dc/dcmitype/StillImage" />
        <dc:title></dc:title>
      </cc:Work>
    </rdf:RDF>
  </metadata>
  <g
     inkscape:label="Calque 1"
     inkscape:groupmode="layer"
     id="layer1">
    <g
       transform="translate(54.498079,237.13011)"
       id="g3">
      <rect
         style="fill:#000000;fill-opacity:1"
         id="rect3891"
         width="753.4483"
         height="763.79315"
         x="-61.394627"
         y="-12.354141"
         inkscape:export-filename="/home/revol/demoinside.png"
         inkscape:export-xdpi="23.566587"
         inkscape:export-ydpi="23.566587" />
      <path
         style="fill:#007dc5;fill-rule:evenodd"
         inkscape:connector-curvature="0"
         clip-rule="evenodd"
         d="m 543.168,88.286 10.211,-71.471 c 0,0 -85.691,-31.725 -213.316,-8.021 C 213.528,31.038 118.356,106.518 77.516,146.629 37.77,186.375 -7.082,258.94 0.94,355.936 c 7.295,98.086 68.553,166.641 133.824,200.188 65.273,33.547 176.854,48.867 276.768,16.414 29.535,-10.211 153.148,-45.945 206.387,-164.461 45.945,-100.273 9.117,-184.871 9.117,-184.871 0,0 -39.746,-123.616 -191.075,-140.024 v 58.344 c 0,0 88.973,1.822 138.93,65.27 48.133,61.26 52.145,120.695 18.598,187.789 -13.492,23.703 -82.773,149.141 -285.152,158.625 -14.221,0 -153.15,5.836 -233.736,-87.883 C 8.235,386.569 22.456,323.116 26.467,300.874 28.655,293.581 34.488,276.079 38.863,266.964 54.908,229.403 97.937,163.038 173.416,124.021 286.092,66.773 363.398,45.259 467.687,59.845 c 11.302,1.822 55.06,10.21 75.481,28.441 l 0,0 z m -98.82,29.537 c 0,-10.211 9.117,-19.326 19.328,-19.326 11.301,0 20.418,9.115 20.418,19.326 0,11.303 -9.117,20.42 -20.418,20.42 -10.211,0 -19.328,-9.118 -19.328,-20.42 l 0,0 z"
         id="path5"
         inkscape:export-xdpi="23.566587"
         inkscape:export-ydpi="23.566587"
         inkscape:export-filename="/home/revol/demoinside.png" />
      <path
         style="fill:#007dc5;fill-rule:evenodd"
         inkscape:connector-curvature="0"
         clip-rule="evenodd"
         d="m 463.676,254.93 c 0,0 0,-1.096 0,-2.189 1.094,-1.094 2.914,-2.918 6.195,-4.01 6.93,-1.094 14.223,-2.189 23.34,4.01 0,0 0,0 1.094,0 0,0 0,1.094 1.094,1.094 1.094,1.096 1.094,2.918 0,6.199 0,5.834 -4.012,167.371 -4.012,167.371 l 0,0 v 1.094 c -1.094,1.094 -2.188,1.094 -4.375,1.828 -2.918,1.086 -12.035,-0.734 -14.223,-1.828 l 0,0 c -1.094,-1.094 -1.094,-1.094 -1.094,-1.094 -0.727,-1.094 -1.824,-2.188 -1.824,-2.914 v -22.609 c 0,0 0,0 0,-1.094 v -1.094 c -1.094,-0.734 -3.281,-0.734 -5.102,2.188 0,0 -2.188,4.008 -5.105,8.023 -3.281,5.102 -6.199,10.211 -8.387,12.398 0,0 -8.023,7.289 -16.043,2.914 0,0 0,0 -2.191,-0.727 -1.094,0 -2.188,-2.188 -4.008,-4.375 -3.285,-4.016 -7.293,-10.945 -8.387,-23.336 -2.918,-24.438 1.094,-60.172 15.313,-73.664 0,0 1.094,-0.727 2.188,-1.82 1.094,-1.093 2.918,-3.281 6.199,-5.109 4.012,-4.008 11.305,-8.383 20.422,-9.477 0,0 1.094,0 1.094,-0.734 l -2.188,-50.316 c 0,0 0,0 0,-0.729 l 0,0 z m 1.094,77.67 c -1.094,-1.094 -2.188,-1.094 -4.012,1.82 -1.094,0 -14.586,13.492 -15.316,48.133 0,1.094 0,2.922 0,6.203 0,2.914 0,6.922 0.73,8.023 1.094,0 4.375,0 9.48,-5.109 0.73,-2.188 2.918,-2.914 4.012,-4.008 1.094,-2.188 1.824,-3.289 2.918,-5.109 2.188,-3.281 3.281,-7.289 3.281,-12.398 v -34.641 c 0,0 0,0 0,-1.094 10e-4,0 10e-4,-1.093 -1.093,-1.82 l 0,0 z"
         id="path7"
         inkscape:export-filename="/home/revol/demoinside.png"
         inkscape:export-xdpi="23.566587"
         inkscape:export-ydpi="23.566587" />
      <path
         style="fill:#007dc5;fill-rule:evenodd"
         inkscape:connector-curvature="0"
         clip-rule="evenodd"
         d="m 532.227,339.53 c -2.188,1.094 -3.281,2.18 -3.281,4.008 0,2.188 0,6.195 0,9.484 0,4.008 0,8.016 1.094,10.203 0,0 0,0 0,0.734 1.094,1.094 1.094,1.094 2.188,2.188 1.824,1.094 4.012,2.188 8.023,0 0,0 0,0 1.094,-1.094 1.094,-1.094 2.918,-1.828 4.012,-2.922 2.918,-2.188 6.199,-6.195 8.023,-10.211 0,-1.094 6.195,-9.109 16.406,-2.188 0,0 0,0 1.094,1.094 1.098,0 1.098,1.094 2.188,2.195 0.73,1.82 1.824,5.102 0,10.938 -1.09,2.188 -2.188,3.281 -3.281,4.375 -1.094,1.82 -1.094,2.914 -1.82,4.008 -2.191,4.016 -5.105,6.93 -8.391,10.211 -6.195,5.109 -15.313,9.117 -29.535,6.93 -1.094,0 -2.188,0 -5.105,-0.727 -2.188,-1.094 -6.195,-3.281 -9.113,-7.297 -7.293,-7.289 -14.223,-19.328 -13.492,-43.023 0,0 4.375,-44.855 22.605,-57.982 0,-1.094 1.094,-1.094 2.188,-3.281 1.824,-1.094 4.012,-1.824 6.93,-4.012 6.199,-2.188 14.223,-2.918 23.703,1.094 18.23,8.021 10.938,30.635 8.02,38.65 -2.914,8.391 -12.395,24.797 -26.617,26.625 h -5.105 c 0,0 0,0 -1.094,0 h -0.734 l 0,0 z m 19.328,-37.93 c 1.094,-2.914 1.094,-6.926 -2.188,-9.113 0,0 -6.199,-1.822 -13.129,12.402 -7.293,15.313 -4.012,23.336 -4.012,23.336 0.73,0 0.73,0 0.73,0 0,0 12.398,-4.016 17.504,-19.328 10e-4,0 1.095,-2.922 1.095,-7.297 l 0,0 z"
         id="path9"
         inkscape:export-filename="/home/revol/demoinside.png"
         inkscape:export-xdpi="23.566587"
         inkscape:export-ydpi="23.566587" />
      <path
         style="fill:#007dc5;fill-rule:evenodd"
         inkscape:connector-curvature="0"
         clip-rule="evenodd"
         d="m 411.532,331.506 c 0,1.094 0,1.094 0,1.094 1.094,0.727 1.094,0.727 1.094,1.82 0,2.188 -2.188,96.992 -2.188,96.992 0,0 0,6.203 -2.918,7.297 -4.012,1.094 -15.316,1.094 -18.598,-2.188 l 0,0 c -0.73,0 -0.73,-1.094 -1.824,-1.094 0,-0.727 -1.094,-2.914 -1.094,-4.016 l -2.918,-105.016 h 16.047 l 12.399,5.111 0,0 z"
         id="path11"
         inkscape:export-filename="/home/revol/demoinside.png"
         inkscape:export-xdpi="23.566587"
         inkscape:export-ydpi="23.566587" />
      <path
         style="fill:#007dc5;fill-rule:evenodd"
         inkscape:connector-curvature="0"
         clip-rule="evenodd"
         d="m 371.786,336.608 c 0,-1.094 0,0 0,0 0,1.094 0,1.094 0,1.828 0,2.188 0,3.273 -2.188,5.102 0,0 -1.824,2.188 -4.012,5.102 -2.188,2.188 -4.012,5.109 -6.199,9.484 -5.105,5.836 -10.211,12.031 -13.129,15.313 l 0,0 c -1.094,0 -1.094,0.734 -1.094,0.734 0,1.094 -1.094,2.188 -1.094,4.375 0,1.82 1.094,4.008 3.281,5.102 5.105,1.828 19.328,12.031 26.254,25.523 0,0 0,0.734 0,1.828 1.098,1.094 1.098,3.281 2.191,6.195 0,4.016 0,11.305 -4.012,17.508 -3.281,5.828 -9.117,14.219 -14.223,21.148 -4.375,6.195 -8.387,11.305 -8.387,11.305 -1.094,1.094 -10.211,8.383 -17.137,3.281 0,0 -1.094,-1.094 -2.188,-2.188 -1.098,0 -2.918,-2.188 -4.012,-2.922 -2.189,-3.281 -4.012,-7.289 -1.096,-11.305 l 22.607,-32.813 c 0,0 0.73,-1.094 1.824,-2.922 1.094,-2.188 1.094,-5.102 -1.824,-8.383 -5.102,-4.016 -27.713,-27.352 -27.713,-29.539 l 0,0 c 0,-1.094 -1.092,-1.094 -1.092,-1.82 -1.096,-1.094 -1.096,-2.188 -1.824,-4.375 -1.094,-4.016 -2.188,-8.023 0.729,-13.133 5.105,-6.195 10.213,-14.219 15.314,-21.508 6.199,-6.93 13.492,-14.227 20.422,-16.414 0,0 1.094,-0.727 3.281,-0.727 1.824,-1.094 5.105,-1.094 6.199,0 4.016,0.729 6.934,8.026 9.122,14.221 l 0,0 z"
         id="path13"
         inkscape:export-filename="/home/revol/demoinside.png"
         inkscape:export-xdpi="23.566587"
         inkscape:export-ydpi="23.566587" />
      <path
         style="fill:#007dc5;fill-rule:evenodd"
         inkscape:connector-curvature="0"
         clip-rule="evenodd"
         d="m 264.579,386.569 0,0 0.73,1.094 c 1.092,1.094 2.188,0 3.281,-1.094 h 1.094 v -1.094 c 0,0 0,-1.102 0,-1.828 0,-2.188 0.729,-4.375 1.824,-6.195 2.188,-5.109 5.105,-10.211 11.303,-12.398 0,0 17.504,-5.109 23.703,8.383 0,0 0.729,0.734 0.729,2.922 1.094,2.914 3.281,7.289 4.375,13.125 1.824,13.492 5.105,39.016 2.918,79.859 0,0 0,8.016 -5.105,11.305 0,0 0,0 -1.094,0 0,0 -1.094,1.094 -2.918,1.094 -2.188,0 -5.104,-1.094 -9.115,-3.281 h -1.094 c 0,-1.102 -1.094,-1.102 -1.094,-1.102 -1.094,-0.727 -2.918,-2.914 -2.918,-6.195 0,0 -7.293,-63.086 -8.387,-69.281 0,-4.008 -1.824,-6.203 -4.012,-7.297 -1.094,-0.727 -2.916,-0.727 -5.104,2.195 0,0 -3.283,5.102 -7.295,13.125 -2.916,7.289 -6.926,17.5 -6.926,27.711 0.729,20.422 1.822,32.82 1.822,32.82 0,0 0,0 0,0.727 v 1.094 c 0,1.094 -1.094,3.281 -1.822,4.375 -3.283,1.828 -12.398,5.109 -18.598,1.828 0,-1.102 0,-1.102 -1.094,-1.102 0,0 -0.73,0 -0.73,-0.727 -1.094,-1.094 -2.188,-2.188 -2.188,-5.469 l -4.01,-111.219 h 31.723 v 26.625 l 0.002,0 z"
         id="path15"
         inkscape:export-filename="/home/revol/demoinside.png"
         inkscape:export-xdpi="23.566587"
         inkscape:export-ydpi="23.566587" />
      <path
         style="fill:#007dc5;fill-rule:evenodd"
         inkscape:connector-curvature="0"
         clip-rule="evenodd"
         d="m 210.247,379.272 c -1.094,0 -1.822,0 -4.012,0 -2.916,-1.82 -14.221,-10.938 -14.221,-10.938 0,0 0,0 -1.092,0 0,0 0,-1.094 -1.096,-1.094 0,-1.094 -1.094,-3.281 1.096,-5.109 2.916,-4.008 9.115,-13.492 10.209,-14.219 1.094,-1.094 2.188,-2.188 4.012,0 3.281,0.727 17.502,10.211 17.502,10.211 0,0 0,0.727 1.094,1.82 0,1.094 0,2.188 0,3.281 -2.188,2.922 -12.398,15.32 -12.398,15.32 l 0,0 -1.094,0.728 0,0 z"
         id="path17"
         inkscape:export-filename="/home/revol/demoinside.png"
         inkscape:export-xdpi="23.566587"
         inkscape:export-ydpi="23.566587" />
      <path
         style="fill:#007dc5;fill-rule:evenodd"
         inkscape:connector-curvature="0"
         clip-rule="evenodd"
         d="m 218.633,391.67 c 0,0 0,0 0.73,0 0,1.094 0,2.188 0,2.188 0,1.82 -0.73,95.898 -0.73,95.898 0,0 0,6.203 -4.375,7.297 -4.012,0.727 -14.221,1.82 -18.232,-1.094 v -1.094 c -1.094,0 -1.094,-1.094 -2.188,-1.094 -0.73,-1.094 -1.824,-2.922 -1.824,-4.016 l -2.188,-103.188 h 16.408 l 12.399,5.103 0,0 z"
         id="path19"
         inkscape:export-filename="/home/revol/demoinside.png"
         inkscape:export-xdpi="23.566587"
         inkscape:export-ydpi="23.566587" />
      <path
         style="fill:#007dc5;fill-rule:evenodd"
         inkscape:connector-curvature="0"
         clip-rule="evenodd"
         d="m 465.864,120.01 c 2.914,-1.094 5.832,-2.188 5.832,-6.199 0,-5.104 -4.008,-6.199 -8.02,-6.199 h -6.199 v 20.42 h 2.188 v -8.021 h 4.012 l 5.102,8.021 h 4.012 l -6.927,-8.022 0,0 z m -6.199,-2.187 V 109.8 h 2.918 c 4.008,0 6.195,1.096 6.195,4.012 0,2.918 -2.188,4.012 -5.102,4.012 h -4.011 l 0,-0.001 z"
         id="path21"
         inkscape:export-filename="/home/revol/demoinside.png"
         inkscape:export-xdpi="23.566587"
         inkscape:export-ydpi="23.566587" />
      <path
         style="fill:#007dc5;fill-rule:evenodd"
         inkscape:connector-curvature="0"
         clip-rule="evenodd"
         d="m 394.028,287.383 h 1.094 c 0,0 0,0 1.094,0 1.094,-1.096 2.188,-1.096 4.012,1.092 1.094,0 2.188,1.094 3.281,2.189 0.73,0.729 2.918,1.822 4.012,2.916 2.918,2.189 6.199,4.012 8.02,7.293 v 0.727 c 0,0 1.098,0 1.098,1.094 0,0 0,1.094 -1.098,2.195 -1.09,0 -4.008,4.008 -6.926,8.016 -2.188,3.281 -5.105,6.203 -5.105,6.203 0,1.094 -3.281,2.188 -5.105,0 -2.188,-1.828 -14.586,-11.305 -15.316,-12.398 -1.09,0 -1.09,-0.734 -1.09,-1.82 0,0 0,-1.102 1.09,-2.195 0.73,0 4.012,-4.008 5.836,-8.02 3.279,-3.282 5.103,-6.2 5.103,-7.292 l 0,0 z"
         id="path33"
         inkscape:export-filename="/home/revol/demoinside.png"
         inkscape:export-xdpi="23.566587"
         inkscape:export-ydpi="23.566587" />
      <text
         xml:space="preserve"
         style="font-size:40px;font-style:normal;font-weight:normal;line-height:125%;letter-spacing:0px;word-spacing:0px;fill:#007dc5;fill-opacity:1;stroke:none;font-family:Sans"
         x="-40.771282"
         y="365.51523"
         id="text3860"
         sodipodi:linespacing="125%"
         transform="matrix(0.94209761,-0.33533876,0.33533876,0.94209761,0,0)"
         inkscape:export-filename="/home/revol/demoinside.png"
         inkscape:export-xdpi="23.566587"
         inkscape:export-ydpi="23.566587"><tspan
           sodipodi:role="line"
           id="tspan3862"
           x="-40.771282"
           y="365.51523"
           style="font-size:152px;font-style:normal;font-variant:normal;font-weight:bold;font-stretch:normal;font-family:Flat Brush;-inkscape-font-specification:Flat Brush Bold">Demo</tspan></text>
      <text
         xml:space="preserve"
         style="font-size:40px;font-style:normal;font-weight:normal;line-height:125%;letter-spacing:0px;word-spacing:0px;fill:#000000;fill-opacity:1;stroke:none;font-family:Sans"
         x="-60.498081"
         y="708.33551"
         id="text3864"
         sodipodi:linespacing="125%"
         inkscape:export-filename="/home/revol/demoinside.png"
         inkscape:export-xdpi="23.566587"
         inkscape:export-ydpi="23.566587"><tspan
           sodipodi:role="line"
           id="tspan3866"
           x="-60.498081"
           y="708.33551"
           style="font-size:120px;font-style:normal;font-variant:normal;font-stretch:normal;fill:#ffffff;font-family:URW Gothic L;-inkscape-font-specification:URW Gothic L Book">alchimie</tspan></text>
      <text
         xml:space="preserve"
         style="font-size:150.6545105px;font-style:normal;font-weight:normal;line-height:125%;letter-spacing:0px;word-spacing:0px;fill:#000000;fill-opacity:1;stroke:none;font-family:Sans"
         x="630.07373"
         y="530.5061"
         id="text3868"
         sodipodi:linespacing="125%"
         transform="scale(0.73300439,1.3642483)"
         inkscape:export-filename="/home/revol/demoinside.png"
         inkscape:export-xdpi="23.566587"
         inkscape:export-ydpi="23.566587"><tspan
           sodipodi:role="line"
           id="tspan3870"
           x="630.07373"
           y="530.5061"
           style="font-size:150.6545105px;font-style:normal;fill:#00ff00;-inkscape-font-specification:Sans">//////</tspan></text>
    </g>
  </g>
</svg>
