<?xml version="1.0" encoding="utf-8"?>
<!-- Generator: Adobe Illustrator 12.0.0, SVG Export Plug-In . SVG Version: 6.00 Build 51448)  -->
<!DOCTYPE svg PUBLIC "-//W3C//DTD SVG 1.1//EN" "http://www.w3.org/Graphics/SVG/1.1/DTD/svg11.dtd" [
	<!ENTITY ns_svg "http://www.w3.org/2000/svg">
	<!ENTITY ns_xlink "http://www.w3.org/1999/xlink">
]>
<svg  version="1.1" id="Layer_1" xmlns="&ns_svg;" xmlns:xlink="&ns_xlink;" width="641.003" height="590.463"
	 viewBox="0 0 641.003 590.463" overflow="visible" enable-background="new 0 0 641.003 590.463" xml:space="preserve">
<g>
	<path fill-rule="evenodd" clip-rule="evenodd" fill="#007DC5" d="M543.168,88.286l10.211-71.471c0,0-85.691-31.725-213.316-8.021
		C213.528,31.038,118.356,106.518,77.516,146.629C37.77,186.375-7.082,258.94,0.94,355.936
		c7.295,98.086,68.553,166.641,133.824,200.188c65.273,33.547,176.854,48.867,276.768,16.414
		c29.535-10.211,153.148-45.945,206.387-164.461c45.945-100.273,9.117-184.871,9.117-184.871S587.29,99.59,435.961,83.182v58.344
		c0,0,88.973,1.822,138.93,65.27c48.133,61.26,52.145,120.695,18.598,187.789c-13.492,23.703-82.773,149.141-285.152,158.625
		c-14.221,0-153.15,5.836-233.736-87.883C8.235,386.569,22.456,323.116,26.467,300.874c2.188-7.293,8.021-24.795,12.396-33.91
		c16.045-37.561,59.074-103.926,134.553-142.943c112.676-57.248,189.982-78.762,294.271-64.176
		C478.989,61.667,522.747,70.055,543.168,88.286L543.168,88.286z M444.348,117.823c0-10.211,9.117-19.326,19.328-19.326
		c11.301,0,20.418,9.115,20.418,19.326c0,11.303-9.117,20.42-20.418,20.42C453.465,138.243,444.348,129.125,444.348,117.823
		L444.348,117.823z"/>
	<path fill-rule="evenodd" clip-rule="evenodd" fill="#007DC5" d="M463.676,254.93c0,0,0-1.096,0-2.189
		c1.094-1.094,2.914-2.918,6.195-4.01c6.93-1.094,14.223-2.189,23.34,4.01c0,0,0,0,1.094,0c0,0,0,1.094,1.094,1.094
		c1.094,1.096,1.094,2.918,0,6.199c0,5.834-4.012,167.371-4.012,167.371l0,0v1.094c-1.094,1.094-2.188,1.094-4.375,1.828
		c-2.918,1.086-12.035-0.734-14.223-1.828l0,0c-1.094-1.094-1.094-1.094-1.094-1.094c-0.727-1.094-1.824-2.188-1.824-2.914v-22.609
		c0,0,0,0,0-1.094v-1.094c-1.094-0.734-3.281-0.734-5.102,2.188c0,0-2.188,4.008-5.105,8.023
		c-3.281,5.102-6.199,10.211-8.387,12.398c0,0-8.023,7.289-16.043,2.914c0,0,0,0-2.191-0.727c-1.094,0-2.188-2.188-4.008-4.375
		c-3.285-4.016-7.293-10.945-8.387-23.336c-2.918-24.438,1.094-60.172,15.313-73.664c0,0,1.094-0.727,2.188-1.82
		s2.918-3.281,6.199-5.109c4.012-4.008,11.305-8.383,20.422-9.477c0,0,1.094,0,1.094-0.734l-2.188-50.316
		C463.676,255.659,463.676,255.659,463.676,254.93L463.676,254.93z M464.77,332.6c-1.094-1.094-2.188-1.094-4.012,1.82
		c-1.094,0-14.586,13.492-15.316,48.133c0,1.094,0,2.922,0,6.203c0,2.914,0,6.922,0.73,8.023c1.094,0,4.375,0,9.48-5.109
		c0.73-2.188,2.918-2.914,4.012-4.008c1.094-2.188,1.824-3.289,2.918-5.109c2.188-3.281,3.281-7.289,3.281-12.398v-34.641
		c0,0,0,0,0-1.094C465.864,334.42,465.864,333.327,464.77,332.6L464.77,332.6z"/>
	<path fill-rule="evenodd" clip-rule="evenodd" fill="#007DC5" d="M532.227,339.53c-2.188,1.094-3.281,2.18-3.281,4.008
		c0,2.188,0,6.195,0,9.484c0,4.008,0,8.016,1.094,10.203c0,0,0,0,0,0.734c1.094,1.094,1.094,1.094,2.188,2.188
		c1.824,1.094,4.012,2.188,8.023,0c0,0,0,0,1.094-1.094s2.918-1.828,4.012-2.922c2.918-2.188,6.199-6.195,8.023-10.211
		c0-1.094,6.195-9.109,16.406-2.188c0,0,0,0,1.094,1.094c1.098,0,1.098,1.094,2.188,2.195c0.73,1.82,1.824,5.102,0,10.938
		c-1.09,2.188-2.188,3.281-3.281,4.375c-1.094,1.82-1.094,2.914-1.82,4.008c-2.191,4.016-5.105,6.93-8.391,10.211
		c-6.195,5.109-15.313,9.117-29.535,6.93c-1.094,0-2.188,0-5.105-0.727c-2.188-1.094-6.195-3.281-9.113-7.297
		c-7.293-7.289-14.223-19.328-13.492-43.023c0,0,4.375-44.855,22.605-57.982c0-1.094,1.094-1.094,2.188-3.281
		c1.824-1.094,4.012-1.824,6.93-4.012c6.199-2.188,14.223-2.918,23.703,1.094c18.23,8.021,10.938,30.635,8.02,38.65
		c-2.914,8.391-12.395,24.797-26.617,26.625h-5.105c0,0,0,0-1.094,0H532.227L532.227,339.53z M551.555,301.6
		c1.094-2.914,1.094-6.926-2.188-9.113c0,0-6.199-1.822-13.129,12.402c-7.293,15.313-4.012,23.336-4.012,23.336
		c0.73,0,0.73,0,0.73,0s12.398-4.016,17.504-19.328C550.461,308.897,551.555,305.975,551.555,301.6L551.555,301.6z"/>
	<path fill-rule="evenodd" clip-rule="evenodd" fill="#007DC5" d="M411.532,331.506c0,1.094,0,1.094,0,1.094
		c1.094,0.727,1.094,0.727,1.094,1.82c0,2.188-2.188,96.992-2.188,96.992s0,6.203-2.918,7.297
		c-4.012,1.094-15.316,1.094-18.598-2.188l0,0c-0.73,0-0.73-1.094-1.824-1.094c0-0.727-1.094-2.914-1.094-4.016l-2.918-105.016
		h16.047L411.532,331.506L411.532,331.506z"/>
	<path fill-rule="evenodd" clip-rule="evenodd" fill="#007DC5" d="M371.786,336.608
		C371.786,335.514,371.786,336.608,371.786,336.608c0,1.094,0,1.094,0,1.828c0,2.188,0,3.273-2.188,5.102
		c0,0-1.824,2.188-4.012,5.102c-2.188,2.188-4.012,5.109-6.199,9.484c-5.105,5.836-10.211,12.031-13.129,15.313l0,0
		c-1.094,0-1.094,0.734-1.094,0.734c0,1.094-1.094,2.188-1.094,4.375c0,1.82,1.094,4.008,3.281,5.102
		c5.105,1.828,19.328,12.031,26.254,25.523c0,0,0,0.734,0,1.828c1.098,1.094,1.098,3.281,2.191,6.195c0,4.016,0,11.305-4.012,17.508
		c-3.281,5.828-9.117,14.219-14.223,21.148c-4.375,6.195-8.387,11.305-8.387,11.305c-1.094,1.094-10.211,8.383-17.137,3.281
		c0,0-1.094-1.094-2.188-2.188c-1.098,0-2.918-2.188-4.012-2.922c-2.189-3.281-4.012-7.289-1.096-11.305l22.607-32.813
		c0,0,0.73-1.094,1.824-2.922c1.094-2.188,1.094-5.102-1.824-8.383c-5.102-4.016-27.713-27.352-27.713-29.539l0,0
		c0-1.094-1.092-1.094-1.092-1.82c-1.096-1.094-1.096-2.188-1.824-4.375c-1.094-4.016-2.188-8.023,0.729-13.133
		c5.105-6.195,10.213-14.219,15.314-21.508c6.199-6.93,13.492-14.227,20.422-16.414c0,0,1.094-0.727,3.281-0.727
		c1.824-1.094,5.105-1.094,6.199,0C366.68,323.116,369.598,330.413,371.786,336.608L371.786,336.608z"/>
	<path fill-rule="evenodd" clip-rule="evenodd" fill="#007DC5" d="M264.579,386.569L264.579,386.569l0.73,1.094
		c1.092,1.094,2.188,0,3.281-1.094h1.094v-1.094c0,0,0-1.102,0-1.828c0-2.188,0.729-4.375,1.824-6.195
		c2.188-5.109,5.105-10.211,11.303-12.398c0,0,17.504-5.109,23.703,8.383c0,0,0.729,0.734,0.729,2.922
		c1.094,2.914,3.281,7.289,4.375,13.125c1.824,13.492,5.105,39.016,2.918,79.859c0,0,0,8.016-5.105,11.305c0,0,0,0-1.094,0
		c0,0-1.094,1.094-2.918,1.094c-2.188,0-5.104-1.094-9.115-3.281h-1.094c0-1.102-1.094-1.102-1.094-1.102
		c-1.094-0.727-2.918-2.914-2.918-6.195c0,0-7.293-63.086-8.387-69.281c0-4.008-1.824-6.203-4.012-7.297
		c-1.094-0.727-2.916-0.727-5.104,2.195c0,0-3.283,5.102-7.295,13.125c-2.916,7.289-6.926,17.5-6.926,27.711
		c0.729,20.422,1.822,32.82,1.822,32.82s0,0,0,0.727v1.094c0,1.094-1.094,3.281-1.822,4.375c-3.283,1.828-12.398,5.109-18.598,1.828
		c0-1.102,0-1.102-1.094-1.102c0,0-0.73,0-0.73-0.727c-1.094-1.094-2.188-2.188-2.188-5.469l-4.01-111.219h31.723V386.569
		L264.579,386.569z"/>
	<path fill-rule="evenodd" clip-rule="evenodd" fill="#007DC5" d="M210.247,379.272c-1.094,0-1.822,0-4.012,0
		c-2.916-1.82-14.221-10.938-14.221-10.938s0,0-1.092,0c0,0,0-1.094-1.096-1.094c0-1.094-1.094-3.281,1.096-5.109
		c2.916-4.008,9.115-13.492,10.209-14.219c1.094-1.094,2.188-2.188,4.012,0c3.281,0.727,17.502,10.211,17.502,10.211
		s0,0.727,1.094,1.82c0,1.094,0,2.188,0,3.281c-2.188,2.922-12.398,15.32-12.398,15.32l0,0L210.247,379.272L210.247,379.272z"/>
	<path fill-rule="evenodd" clip-rule="evenodd" fill="#007DC5" d="M218.633,391.67c0,0,0,0,0.73,0c0,1.094,0,2.188,0,2.188
		c0,1.82-0.73,95.898-0.73,95.898s0,6.203-4.375,7.297c-4.012,0.727-14.221,1.82-18.232-1.094v-1.094
		c-1.094,0-1.094-1.094-2.188-1.094c-0.73-1.094-1.824-2.922-1.824-4.016l-2.188-103.188h16.408L218.633,391.67L218.633,391.67z"/>
	<path fill-rule="evenodd" clip-rule="evenodd" fill="#007DC5" d="M465.864,120.01c2.914-1.094,5.832-2.188,5.832-6.199
		c0-5.104-4.008-6.199-8.02-6.199h-6.199v20.42h2.188v-8.021h4.012l5.102,8.021h4.012L465.864,120.01L465.864,120.01z
		 M459.665,117.823v-8.023h2.918c4.008,0,6.195,1.096,6.195,4.012c0,2.918-2.188,4.012-5.102,4.012H459.665L459.665,117.823z"/>
	<path fill-rule="evenodd" clip-rule="evenodd" fill="#007DC5" d="M302.137,233.415c-0.729,0-1.822,1.094-1.822,2.918
		c0,3.281-1.096,6.199-1.096,10.209c0,3.281,0,7.293,1.096,9.117c0,0,0,1.094,1.094,1.094c0,1.094,0.729,2.188,0.729,2.188
		c2.188,1.094,5.105,1.824,8.387,1.094c0,0,1.094-1.094,1.824-2.188c1.094,0,2.188-1.094,3.281-2.188
		c2.918-2.918,6.199-5.836,8.021-10.939c0,0,6.201-9.482,16.412-1.094c0,0,0,0,1.09,0c1.098,1.094,1.824,1.822,1.824,2.916
		c2.188,2.189,2.188,5.105,0,10.211c-0.727,2.188-1.824,3.281-1.824,5.105c-1.09,1.094-2.188,2.188-3.281,4.01
		c-1.82,3.283-4.012,6.199-8.02,9.48c-6.201,5.105-15.316,9.117-29.537,8.023c0,0-2.188-1.096-5.105-2.188
		c-2.188-0.73-6.199-2.918-9.117-6.93c-7.293-6.199-14.584-19.324-12.396-41.934c0,0,2.918-45.945,21.514-59.072
		c0,0,1.094-1.094,2.918-2.188c1.092-1.094,4.01-2.918,6.197-4.012c6.199-3.281,14.223-4.012,23.34,0
		c18.594,9.115,11.301,31.725,8.387,39.746c-3.285,8.021-12.4,23.338-26.621,25.525l-5.105,1.094l0,0
		C303.231,232.321,303.231,232.321,302.137,233.415L302.137,233.415z M322.557,195.491c0-2.916,0-8.021-1.822-10.209
		c-1.096,0-7.293-1.822-13.492,12.398c-6.928,15.316-4.012,23.336-4.012,23.336s0,1.094,1.094,0c0,0,11.305-4.012,16.41-19.326
		C320.735,201.69,321.829,198.774,322.557,195.491L322.557,195.491z"/>
	<path fill-rule="evenodd" clip-rule="evenodd" fill="#007DC5" d="M230.667,137.149c0-0.73,0-0.73,0-1.824
		c1.094-1.094,2.189-2.188,5.105-1.094l21.514-1.094c0,0,6.199,0,6.199,7.293c0,6.93,0,16.408,0,16.408s0,0,0,1.096c0,0,0,0,0,0.729
		c1.094,1.094,1.824,1.094,4.012,0c2.916-0.729,16.408-5.834,16.408-5.834h1.094c1.094,0,1.094-1.094,1.824-1.094
		c1.094,0,3.281,0,5.105,1.822c3.281,3.281,2.188,9.48,2.188,9.48s0,2.918-2.918,5.105c-2.188,0.729-27.713,10.939-27.713,10.939
		c-1.092,0-1.092,0-1.092,1.094l-2.189,129.814c0,0,0,0,0,1.094c0,0,0,0,0,1.094c0,0.727,0,1.82-1.822,1.82
		c0,0-1.096,1.094-2.189,1.094c-1.094,1.094-2.916,2.188-5.105,2.922c-4.01,1.094-9.117,1.094-13.127-2.922
		c0,0-4.01-2.914-4.01-7.289l-2.189-113.404c0-0.73-1.094-0.73-1.094-0.73l-26.619,10.939c-1.822-1.824-17.137-10.939-17.137-19.326
		v-1.094v-0.729c0,0,0-1.096,1.094-1.096c0.729,0,12.033-3.281,22.242-6.199c10.211-4.01,20.42-7.293,20.42-7.293
		s1.094,0,1.094-0.729L230.667,137.149L230.667,137.149L230.667,137.149z"/>
	<path fill-rule="evenodd" clip-rule="evenodd" fill="#007DC5" d="M168.313,238.52L168.313,238.52v1.094
		c1.094,0,1.094,0,3.281-1.094c0-1.094,0-2.188,0-3.283c1.096-1.822,1.822-4.01,2.918-5.834c2.188-5.104,5.104-10.209,12.398-12.398
		c0,0,1.094,0,1.822-1.092c2.189,0,5.105,0,7.293,0c5.105,0,9.117,2.188,12.398,7.293c0.729,0,1.822,4.012,4.01,6.928
		c2.918,9.48,8.023,32.818,6.199,88.975c0,0,0,2.188-1.094,5.102c-1.094,3.281-2.188,5.109-5.105,7.297c1.094,0,0,0,0,0s0,0-1.094,0
		c0,0-1.094,1.094-2.916,1.094c-2.189,0-6.199,0-10.211-3.281c0,0-4.375-1.828-5.105-6.93c0,0-6.197-62.355-8.385-68.555
		c-1.096-6.197-5.107-9.115-6.93-5.104c0,0-4.377,5.104-7.293,13.127c-4.01,7.293-8.021,17.502-7.293,27.711
		c1.094,20.422,1.094,31.727,1.094,31.727s1.094,1.094,0,1.82c0,1.094,0,3.281-1.822,4.375c-3.283,1.828-12.398,5.109-19.691,1.828
		c0,0,0-1.094-0.73-1.094c0,0-1.094,0-1.094-0.734c-1.092-1.094-3.281-3.281-2.188-5.102l-2.916-110.488l31.723-1.096
		L168.313,238.52L168.313,238.52z"/>
	<path fill-rule="evenodd" clip-rule="evenodd" fill="#007DC5" d="M123.461,262.952c0,0,0,0,0,1.094
		c1.094,0,1.094,1.094,1.094,1.094c0,1.824-2.188,92.984-2.188,92.984s0,0.727-0.729,2.914c0,1.094-1.096,2.922-2.188,2.922
		c-4.012,1.094-15.316,2.188-18.598-0.734l0,0c0,0,0,0-0.729-1.094c0,0,0,0-1.096,0c0-1.094-1.092-2.188-1.092-4.008L95.02,258.94
		l16.043-1.094L123.461,262.952L123.461,262.952z"/>
	<path fill-rule="evenodd" clip-rule="evenodd" fill="#007DC5" d="M109.241,246.542L109.241,246.542c0,1.096,0,1.096-1.094,1.096
		s-2.189,0-2.918-1.096c-2.188-1.822-13.492-14.221-15.314-16.408v-0.73c0-1.094,0-2.186,0.729-2.186
		c1.094-1.096,13.492-12.4,13.492-12.4c1.094,0,1.094,0,1.094,0s0-0.729,0.729-0.729c1.096,0,2.189,0,4.377,0.729
		c0.729,2.188,2.918,4.377,5.834,6.199c2.188,2.189,5.471,5.105,7.293,8.387c0,0.73,0,0.73,1.094,1.824c0,0,0,1.094-1.094,2.188
		c-1.094,0-4.01,4.012-7.293,6.928C112.159,243.625,109.241,246.542,109.241,246.542L109.241,246.542L109.241,246.542z"/>
	<path fill-rule="evenodd" clip-rule="evenodd" fill="#007DC5" d="M394.028,287.383h1.094c0,0,0,0,1.094,0
		c1.094-1.096,2.188-1.096,4.012,1.092c1.094,0,2.188,1.094,3.281,2.189c0.73,0.729,2.918,1.822,4.012,2.916
		c2.918,2.189,6.199,4.012,8.02,7.293v0.727c0,0,1.098,0,1.098,1.094c0,0,0,1.094-1.098,2.195c-1.09,0-4.008,4.008-6.926,8.016
		c-2.188,3.281-5.105,6.203-5.105,6.203c0,1.094-3.281,2.188-5.105,0c-2.188-1.828-14.586-11.305-15.316-12.398
		c-1.09,0-1.09-0.734-1.09-1.82c0,0,0-1.102,1.09-2.195c0.73,0,4.012-4.008,5.836-8.02
		C392.204,291.393,394.028,288.475,394.028,287.383L394.028,287.383z"/>
	<path fill-rule="evenodd" clip-rule="evenodd" fill="#007DC5" d="M344.071,97.403c0-4.012,0-6.199,5.105-6.928
		c4.012-2.189,18.598-2.189,28.809,0.729c0,0,2.914,2.188,2.914,8.387c0,6.928-1.094,168.465-1.094,168.465s-1.82,7.293-5.102,8.023
		c-1.824,2.188-11.305,3.281-14.223,1.094c0,0-5.105-1.094-5.105-8.021C355.375,262.952,344.071,97.403,344.071,97.403
		L344.071,97.403z"/>
</g>
</svg>
